<mxfile host="65bd71144e">
    <diagram id="017f8c95-fb68-8786-d88e-a03e5865ba50" name="01 - flow">
        <mxGraphModel dx="887" dy="782" grid="1" gridSize="10" guides="1" tooltips="1" connect="1" arrows="1" fold="1" page="1" pageScale="1" pageWidth="3300" pageHeight="4681" background="#ffffff" math="0" shadow="0">
            <root>
                <mxCell id="0"/>
                <mxCell id="1" parent="0"/>
                <mxCell id="15" style="edgeStyle=orthogonalEdgeStyle;rounded=0;html=1;exitX=0.5;exitY=1;jettySize=auto;orthogonalLoop=1;strokeWidth=3;fontSize=20;strokeColor=#000;" parent="1" source="12" target="13" edge="1">
                    <mxGeometry relative="1" as="geometry"/>
                </mxCell>
                <mxCell id="12" value="Development" style="rounded=0;whiteSpace=wrap;html=1;strokeWidth=2;fontSize=20;align=center;fontStyle=1" parent="1" vertex="1">
                    <mxGeometry x="910" y="530" width="170" height="60" as="geometry"/>
                </mxCell>
                <mxCell id="16" style="edgeStyle=orthogonalEdgeStyle;rounded=0;html=1;exitX=0.5;exitY=1;jettySize=auto;orthogonalLoop=1;strokeWidth=3;fontSize=20;strokeColor=#000;" parent="1" source="13" target="14" edge="1">
                    <mxGeometry relative="1" as="geometry"/>
                </mxCell>
                <mxCell id="13" value="Testing" style="rounded=0;whiteSpace=wrap;html=1;strokeWidth=2;fontSize=20;align=center;fontStyle=1" parent="1" vertex="1">
                    <mxGeometry x="910" y="615" width="170" height="60" as="geometry"/>
                </mxCell>
                <mxCell id="17" style="edgeStyle=orthogonalEdgeStyle;rounded=0;html=1;exitX=0.5;exitY=1;entryX=0.5;entryY=0;jettySize=auto;orthogonalLoop=1;strokeWidth=3;fontSize=20;strokeColor=#000;" parent="1" source="14" target="12" edge="1">
                    <mxGeometry relative="1" as="geometry">
                        <Array as="points">
                            <mxPoint x="995" y="780"/>
                            <mxPoint x="1120" y="780"/>
                            <mxPoint x="1120" y="500"/>
                            <mxPoint x="995" y="500"/>
                        </Array>
                    </mxGeometry>
                </mxCell>
                <mxCell id="14" value="Deployment" style="rounded=0;whiteSpace=wrap;html=1;strokeWidth=2;fontSize=20;align=center;fontStyle=1" parent="1" vertex="1">
                    <mxGeometry x="910" y="700" width="170" height="60" as="geometry"/>
                </mxCell>
            </root>
        </mxGraphModel>
    </diagram>
    <diagram id="1211e4a8-733d-f656-cf6c-203a34cabfd0" name="04 - flow">
        <mxGraphModel dx="887" dy="782" grid="1" gridSize="10" guides="1" tooltips="1" connect="1" arrows="1" fold="1" page="1" pageScale="1" pageWidth="3300" pageHeight="4681" background="#ffffff" math="0" shadow="0">
            <root>
                <mxCell id="0"/>
                <mxCell id="1" parent="0"/>
                <mxCell id="2" value="Github Repo" style="rounded=0;whiteSpace=wrap;html=1;strokeWidth=2;fontSize=20;align=center;fillColor=#1ba1e2;strokeColor=#006EAF;fontStyle=1;fontColor=#ffffff;" parent="1" vertex="1">
                    <mxGeometry x="810" y="140" width="340" height="60" as="geometry"/>
                </mxCell>
                <mxCell id="10" style="edgeStyle=orthogonalEdgeStyle;rounded=0;html=1;exitX=1;exitY=0.5;jettySize=auto;orthogonalLoop=1;strokeWidth=3;fontSize=14;strokeColor=#000;" parent="1" target="9" edge="1">
                    <mxGeometry relative="1" as="geometry">
                        <mxPoint x="1150" y="225.33333333333337" as="sourcePoint"/>
                    </mxGeometry>
                </mxCell>
                <mxCell id="3" value="master" style="rounded=0;whiteSpace=wrap;html=1;strokeWidth=2;fontSize=20;align=center;fillColor=#ffffff;strokeColor=#000000;fontStyle=0;fontColor=#000;" parent="1" vertex="1">
                    <mxGeometry x="1050" y="200" width="100" height="50" as="geometry"/>
                </mxCell>
                <mxCell id="13" style="edgeStyle=orthogonalEdgeStyle;rounded=0;html=1;jettySize=auto;orthogonalLoop=1;strokeWidth=3;fontSize=14;entryX=0.5;entryY=1;strokeColor=#000;" parent="1" source="8" target="4" edge="1">
                    <mxGeometry relative="1" as="geometry"/>
                </mxCell>
                <mxCell id="14" style="edgeStyle=orthogonalEdgeStyle;rounded=0;html=1;exitX=1;exitY=0.5;entryX=0;entryY=0.5;jettySize=auto;orthogonalLoop=1;strokeWidth=3;fontSize=14;strokeColor=#000;" parent="1" source="4" target="3" edge="1">
                    <mxGeometry relative="1" as="geometry"/>
                </mxCell>
                <mxCell id="15" value="Pull Request" style="text;html=1;resizable=0;points=[];align=center;verticalAlign=middle;labelBackgroundColor=#ffffff;fontSize=14;fontColor=#000;" parent="14" vertex="1" connectable="0">
                    <mxGeometry x="-0.1905" y="2" relative="1" as="geometry">
                        <mxPoint as="offset"/>
                    </mxGeometry>
                </mxCell>
                <mxCell id="4" value="feature" style="rounded=0;whiteSpace=wrap;html=1;strokeWidth=2;fontSize=20;align=center;fillColor=#ffffff;strokeColor=#000000;fontStyle=0;fontColor=#000;" parent="1" vertex="1">
                    <mxGeometry x="810" y="200" width="100" height="50" as="geometry"/>
                </mxCell>
                <mxCell id="5" value="" style="shape=curlyBracket;whiteSpace=wrap;html=1;rounded=1;strokeWidth=2;fontSize=20;align=center;fontColor=#000;labelBackgroundColor=#000;strokeColor=#000;" parent="1" vertex="1">
                    <mxGeometry x="780" y="200" width="20" height="50" as="geometry"/>
                </mxCell>
                <mxCell id="6" value="Branches" style="text;html=1;strokeColor=none;fillColor=none;align=right;verticalAlign=middle;whiteSpace=wrap;rounded=0;fontSize=14;fontStyle=2;fontColor=#000;" parent="1" vertex="1">
                    <mxGeometry x="736" y="215" width="40" height="20" as="geometry"/>
                </mxCell>
                <mxCell id="7" value="&lt;font color=&quot;#000000&quot;&gt;You&lt;/font&gt;" style="shape=umlActor;verticalLabelPosition=bottom;labelBackgroundColor=#ffffff;verticalAlign=top;html=1;outlineConnect=0;strokeWidth=2;fontSize=14;align=right;strokeColor=#000;" parent="1" vertex="1">
                    <mxGeometry x="766" y="310" width="44" height="80" as="geometry"/>
                </mxCell>
                <mxCell id="8" value="" style="shadow=0;dashed=0;html=1;strokeColor=none;fillColor=#505050;labelPosition=center;verticalLabelPosition=bottom;verticalAlign=top;outlineConnect=0;align=center;shape=mxgraph.office.devices.laptop;fontSize=14;" parent="1" vertex="1">
                    <mxGeometry x="815" y="310" width="90" height="64" as="geometry"/>
                </mxCell>
                <mxCell id="12" style="edgeStyle=orthogonalEdgeStyle;rounded=0;html=1;exitX=1;exitY=0.5;jettySize=auto;orthogonalLoop=1;strokeWidth=3;fontSize=14;strokeColor=#000;" parent="1" target="11" edge="1">
                    <mxGeometry relative="1" as="geometry">
                        <mxPoint x="1320" y="225.33333333333337" as="sourcePoint"/>
                    </mxGeometry>
                </mxCell>
                <mxCell id="9" value="Travis CI" style="rounded=0;whiteSpace=wrap;html=1;strokeWidth=2;fontSize=20;align=center;fillColor=#60a917;strokeColor=#2D7600;fontStyle=1;fontColor=#ffffff;" parent="1" vertex="1">
                    <mxGeometry x="1190" y="185" width="130" height="80" as="geometry"/>
                </mxCell>
                <mxCell id="11" value="AWS Hosting" style="rounded=0;whiteSpace=wrap;html=1;strokeWidth=2;fontSize=20;align=center;fillColor=#60a917;strokeColor=#2D7600;fontStyle=1;fontColor=#ffffff;" parent="1" vertex="1">
                    <mxGeometry x="1360" y="185" width="130" height="80" as="geometry"/>
                </mxCell>
            </root>
        </mxGraphModel>
    </diagram>
    <diagram id="d2ba077f-7077-01c2-0ce5-2b6b140d6d03" name="02 - git">
        <mxGraphModel dx="887" dy="782" grid="1" gridSize="10" guides="1" tooltips="1" connect="1" arrows="1" fold="1" page="1" pageScale="1" pageWidth="3300" pageHeight="4681" background="#ffffff" math="0" shadow="0">
            <root>
                <mxCell id="0"/>
                <mxCell id="1" parent="0"/>
                <mxCell id="2" value="Dev" style="rounded=0;whiteSpace=wrap;html=1;strokeWidth=2;fontSize=20;align=center;fontStyle=1" parent="1" vertex="1">
                    <mxGeometry x="810" y="170" width="60" height="80" as="geometry"/>
                </mxCell>
                <mxCell id="4" value="Create/change features" style="rounded=0;whiteSpace=wrap;html=1;strokeWidth=2;fontSize=14;align=center;" parent="1" vertex="1">
                    <mxGeometry x="870" y="170" width="230" height="40" as="geometry"/>
                </mxCell>
                <mxCell id="5" value="" style="rounded=0;whiteSpace=wrap;html=1;strokeWidth=2;fontSize=14;align=center;" parent="1" vertex="1">
                    <mxGeometry x="810" y="250" width="200" as="geometry"/>
                </mxCell>
                <mxCell id="6" value="Make changes on a non-master branch" style="rounded=0;whiteSpace=wrap;html=1;strokeWidth=2;fontSize=14;align=center;" parent="1" vertex="1">
                    <mxGeometry x="870" y="210" width="230" height="40" as="geometry"/>
                </mxCell>
                <mxCell id="11" value="Flow" style="text;html=1;strokeColor=none;fillColor=none;align=center;verticalAlign=middle;whiteSpace=wrap;rounded=0;fontSize=14;fontStyle=3" parent="1" vertex="1">
                    <mxGeometry x="747" y="170" width="40" height="20" as="geometry"/>
                </mxCell>
                <mxCell id="12" value="" style="endArrow=classic;html=1;strokeWidth=3;fontSize=14;strokeColor=#000;" parent="1" edge="1">
                    <mxGeometry width="50" height="50" relative="1" as="geometry">
                        <mxPoint x="795" y="170" as="sourcePoint"/>
                        <mxPoint x="795" y="720" as="targetPoint"/>
                    </mxGeometry>
                </mxCell>
                <mxCell id="23" style="edgeStyle=orthogonalEdgeStyle;rounded=0;html=1;exitX=0.5;exitY=1;jettySize=auto;orthogonalLoop=1;strokeWidth=3;fontSize=14;strokeColor=#000;" parent="1" source="13" target="22" edge="1">
                    <mxGeometry relative="1" as="geometry"/>
                </mxCell>
                <mxCell id="13" value="Push to github" style="rounded=0;whiteSpace=wrap;html=1;strokeWidth=2;fontSize=14;align=center;fillColor=#f5f5f5;strokeColor=#666666;fontColor=#000;" parent="1" vertex="1">
                    <mxGeometry x="900" y="276.5" width="130" height="40" as="geometry"/>
                </mxCell>
                <mxCell id="21" style="edgeStyle=orthogonalEdgeStyle;rounded=0;html=1;exitX=0.25;exitY=0;entryX=0.5;entryY=0;jettySize=auto;orthogonalLoop=1;strokeWidth=3;fontSize=14;fontColor=#000;strokeColor=#000;" parent="1" target="13" edge="1">
                    <mxGeometry relative="1" as="geometry">
                        <mxPoint x="965" y="250.83333333333337" as="sourcePoint"/>
                    </mxGeometry>
                </mxCell>
                <mxCell id="20" value="" style="rounded=0;whiteSpace=wrap;html=1;strokeWidth=2;fontSize=14;align=center;" parent="1" vertex="1">
                    <mxGeometry x="810" y="250" width="200" as="geometry"/>
                </mxCell>
                <mxCell id="22" value="Create Pull Request to merge with master" style="rounded=0;whiteSpace=wrap;html=1;strokeWidth=2;fontSize=14;align=center;fillColor=#f5f5f5;strokeColor=#666666;fontColor=#302c2c;" parent="1" vertex="1">
                    <mxGeometry x="900" y="340.5" width="130" height="50" as="geometry"/>
                </mxCell>
                <mxCell id="24" value="Test" style="rounded=0;whiteSpace=wrap;html=1;strokeWidth=2;fontSize=20;align=center;fontStyle=1" parent="1" vertex="1">
                    <mxGeometry x="810" y="414" width="60" height="80" as="geometry"/>
                </mxCell>
                <mxCell id="25" value="Code pushed to Travis CI" style="rounded=0;whiteSpace=wrap;html=1;strokeWidth=2;fontSize=14;align=center;" parent="1" vertex="1">
                    <mxGeometry x="870" y="414" width="230" height="40" as="geometry"/>
                </mxCell>
                <mxCell id="26" value="" style="rounded=0;whiteSpace=wrap;html=1;strokeWidth=2;fontSize=14;align=center;" parent="1" vertex="1">
                    <mxGeometry x="810" y="494" width="200" as="geometry"/>
                </mxCell>
                <mxCell id="27" value="Tests run" style="rounded=0;whiteSpace=wrap;html=1;strokeWidth=2;fontSize=14;align=center;" parent="1" vertex="1">
                    <mxGeometry x="870" y="454" width="230" height="40" as="geometry"/>
                </mxCell>
                <mxCell id="28" value="" style="rounded=0;whiteSpace=wrap;html=1;strokeWidth=2;fontSize=14;align=center;" parent="1" vertex="1">
                    <mxGeometry x="810" y="494" width="200" as="geometry"/>
                </mxCell>
                <mxCell id="32" value="Prod" style="rounded=0;whiteSpace=wrap;html=1;strokeWidth=2;fontSize=20;align=center;fontStyle=1" parent="1" vertex="1">
                    <mxGeometry x="810" y="594" width="60" height="120" as="geometry"/>
                </mxCell>
                <mxCell id="33" value="Code pushed to Travis CI" style="rounded=0;whiteSpace=wrap;html=1;strokeWidth=2;fontSize=14;align=center;" parent="1" vertex="1">
                    <mxGeometry x="870" y="594" width="230" height="40" as="geometry"/>
                </mxCell>
                <mxCell id="34" value="" style="rounded=0;whiteSpace=wrap;html=1;strokeWidth=2;fontSize=14;align=center;" parent="1" vertex="1">
                    <mxGeometry x="810" y="674" width="200" as="geometry"/>
                </mxCell>
                <mxCell id="36" value="" style="rounded=0;whiteSpace=wrap;html=1;strokeWidth=2;fontSize=14;align=center;" parent="1" vertex="1">
                    <mxGeometry x="810" y="674" width="200" as="geometry"/>
                </mxCell>
                <mxCell id="39" value="" style="rounded=0;whiteSpace=wrap;html=1;strokeWidth=2;fontSize=14;align=center;" parent="1" vertex="1">
                    <mxGeometry x="810" y="494" width="200" as="geometry"/>
                </mxCell>
                <mxCell id="41" style="edgeStyle=orthogonalEdgeStyle;rounded=0;html=1;exitX=0.5;exitY=1;jettySize=auto;orthogonalLoop=1;strokeWidth=3;fontSize=14;strokeColor=#121212;" parent="1" edge="1">
                    <mxGeometry relative="1" as="geometry">
                        <mxPoint x="964.9000000000001" y="494.29999999999995" as="sourcePoint"/>
                        <mxPoint x="964.9000000000001" y="518.5" as="targetPoint"/>
                    </mxGeometry>
                </mxCell>
                <mxCell id="DdVTQFEufv_9sM4iJpUP-49" value="" style="edgeStyle=none;sketch=1;hachureGap=4;jiggle=2;curveFitting=1;html=1;strokeColor=#000;fontFamily=Architects Daughter;fontSource=https%3A%2F%2Ffonts.googleapis.com%2Fcss%3Ffamily%3DArchitects%2BDaughter;fontSize=16;fontColor=#000;" edge="1" parent="1" source="42">
                    <mxGeometry relative="1" as="geometry">
                        <mxPoint x="965" y="649.5" as="targetPoint"/>
                    </mxGeometry>
                </mxCell>
                <mxCell id="42" value="Merge PR with master" style="rounded=0;whiteSpace=wrap;html=1;strokeWidth=2;fontSize=14;align=center;fillColor=#f5f5f5;strokeColor=#666666;fontColor=#000;" parent="1" vertex="1">
                    <mxGeometry x="900" y="519.5" width="130" height="50" as="geometry"/>
                </mxCell>
                <mxCell id="45" style="edgeStyle=orthogonalEdgeStyle;rounded=0;html=1;exitX=0.5;exitY=1;jettySize=auto;orthogonalLoop=1;strokeWidth=3;fontSize=14;fontColor=#000;strokeColor=#121212;" parent="1" edge="1">
                    <mxGeometry relative="1" as="geometry">
                        <mxPoint x="964.4000000000001" y="569.2999999999998" as="sourcePoint"/>
                        <mxPoint x="964.5" y="593.8333333333334" as="targetPoint"/>
                    </mxGeometry>
                </mxCell>
                <mxCell id="46" value="Tests run" style="rounded=0;whiteSpace=wrap;html=1;strokeWidth=2;fontSize=14;align=center;" parent="1" vertex="1">
                    <mxGeometry x="870" y="634" width="230" height="40" as="geometry"/>
                </mxCell>
                <mxCell id="47" value="Deploy to AWS Elastic Beanstalk" style="rounded=0;whiteSpace=wrap;html=1;strokeWidth=2;fontSize=14;align=center;" parent="1" vertex="1">
                    <mxGeometry x="870" y="674" width="230" height="40" as="geometry"/>
                </mxCell>
                <mxCell id="48" style="edgeStyle=orthogonalEdgeStyle;rounded=0;html=1;exitX=0.5;exitY=1;jettySize=auto;orthogonalLoop=1;strokeWidth=3;fontSize=14;strokeColor=#121212;" parent="1" edge="1">
                    <mxGeometry relative="1" as="geometry">
                        <mxPoint x="964.5" y="390.33333333333337" as="sourcePoint"/>
                        <mxPoint x="964.5" y="414" as="targetPoint"/>
                    </mxGeometry>
                </mxCell>
            </root>
        </mxGraphModel>
    </diagram>
    <diagram id="85db684e-0c77-49e2-c901-7bfbb782cf7c" name="03 - notice">
        <mxGraphModel dx="887" dy="782" grid="1" gridSize="10" guides="1" tooltips="1" connect="1" arrows="1" fold="1" page="1" pageScale="1" pageWidth="3300" pageHeight="4681" background="#ffffff" math="0" shadow="0">
            <root>
                <mxCell id="0"/>
                <mxCell id="1" parent="0"/>
                <mxCell id="2" value="Last diagram didn't mention anything about Docker!" style="rounded=0;whiteSpace=wrap;html=1;strokeWidth=2;fontSize=14;align=center;fillColor=#60a917;strokeColor=#000;fontColor=#ffffff;" parent="1" vertex="1">
                    <mxGeometry x="428" y="190" width="390" height="50" as="geometry"/>
                </mxCell>
                <mxCell id="3" value="Something to notice..." style="text;html=1;strokeColor=#000;fillColor=#60a917;align=center;verticalAlign=middle;whiteSpace=wrap;rounded=0;fontSize=24;fontStyle=3;fontColor=#ffffff;" parent="1" vertex="1">
                    <mxGeometry x="470" y="150" width="310" height="30" as="geometry"/>
                </mxCell>
                <mxCell id="4" style="edgeStyle=orthogonalEdgeStyle;rounded=0;html=1;exitX=0.5;exitY=0;entryX=0.5;entryY=0;jettySize=auto;orthogonalLoop=1;strokeWidth=3;fontSize=14;fillColor=#60a917;strokeColor=#000;" parent="1" source="3" target="3" edge="1">
                    <mxGeometry relative="1" as="geometry"/>
                </mxCell>
                <mxCell id="5" value="Docker is a &lt;b&gt;&lt;i&gt;tool&lt;/i&gt;&lt;/b&gt; in a normal development flow" style="rounded=0;whiteSpace=wrap;html=1;strokeWidth=2;fontSize=14;align=center;fillColor=#60a917;strokeColor=#000;fontColor=#ffffff;" parent="1" vertex="1">
                    <mxGeometry x="428" y="255" width="390" height="50" as="geometry"/>
                </mxCell>
                <mxCell id="6" value="Docker makes some of these tasks a lot easier" style="rounded=0;whiteSpace=wrap;html=1;strokeWidth=2;fontSize=14;align=center;fillColor=#60a917;strokeColor=#000;fontColor=#ffffff;" parent="1" vertex="1">
                    <mxGeometry x="428" y="320" width="390" height="50" as="geometry"/>
                </mxCell>
            </root>
        </mxGraphModel>
    </diagram>
    <diagram id="07531b80-1258-c44c-96bf-994e705a5ddc" name="05 - docker">
        <mxGraphModel dx="887" dy="782" grid="1" gridSize="10" guides="1" tooltips="1" connect="1" arrows="1" fold="1" page="1" pageScale="1" pageWidth="3300" pageHeight="4681" background="#ffffff" math="0" shadow="0">
            <root>
                <mxCell id="0"/>
                <mxCell id="1" parent="0"/>
                <mxCell id="2" value="npm run start" style="rounded=0;whiteSpace=wrap;html=1;strokeWidth=2;fontSize=14;align=center;fontStyle=1;fillColor=#dae8fc;strokeColor=#6c8ebf;fontColor=#000;" parent="1" vertex="1">
                    <mxGeometry x="480" y="230" width="120" height="60" as="geometry"/>
                </mxCell>
                <mxCell id="3" value="npm run test" style="rounded=0;whiteSpace=wrap;html=1;strokeWidth=2;fontSize=14;align=center;fontStyle=1;fillColor=#dae8fc;strokeColor=#6c8ebf;fontColor=#000;" parent="1" vertex="1">
                    <mxGeometry x="480" y="290" width="120" height="60" as="geometry"/>
                </mxCell>
                <mxCell id="4" value="npm run build" style="rounded=0;whiteSpace=wrap;html=1;strokeWidth=2;fontSize=14;align=center;fontStyle=1;fillColor=#dae8fc;strokeColor=#6c8ebf;fontColor=#000;" parent="1" vertex="1">
                    <mxGeometry x="480" y="350" width="120" height="60" as="geometry"/>
                </mxCell>
                <mxCell id="5" value="Starts up a development server.&amp;nbsp; &lt;i&gt;For development use only&lt;/i&gt;" style="rounded=0;whiteSpace=wrap;html=1;strokeWidth=2;fontSize=14;align=center;fontStyle=0;fillColor=#ffffff;strokeColor=#000000;fontColor=#000;" parent="1" vertex="1">
                    <mxGeometry x="600" y="230" width="360" height="60" as="geometry"/>
                </mxCell>
                <mxCell id="8" value="Runs tests associated with the project" style="rounded=0;whiteSpace=wrap;html=1;strokeWidth=2;fontSize=14;align=center;fontStyle=0;fillColor=#ffffff;strokeColor=#000000;fontColor=#000;" parent="1" vertex="1">
                    <mxGeometry x="600" y="290" width="360" height="60" as="geometry"/>
                </mxCell>
                <mxCell id="9" value="Builds a &lt;b&gt;production&lt;/b&gt; version of the application" style="rounded=0;whiteSpace=wrap;html=1;strokeWidth=2;fontSize=14;align=center;fontStyle=0;fillColor=#ffffff;strokeColor=#000000;fontColor=#000;" parent="1" vertex="1">
                    <mxGeometry x="600" y="350" width="360" height="60" as="geometry"/>
                </mxCell>
            </root>
        </mxGraphModel>
    </diagram>
    <diagram id="32a5a087-9fc3-c972-d514-733608c46c7a" name="06 - dev">
        <mxGraphModel dx="887" dy="782" grid="1" gridSize="10" guides="1" tooltips="1" connect="1" arrows="1" fold="1" page="1" pageScale="1" pageWidth="3300" pageHeight="4681" background="#ffffff" math="0" shadow="0">
            <root>
                <mxCell id="0"/>
                <mxCell id="1" parent="0"/>
                <mxCell id="2" value="Docker Container&lt;br&gt;&lt;br&gt;&lt;br&gt;&lt;br&gt;" style="rounded=0;whiteSpace=wrap;html=1;strokeWidth=2;fontSize=24;align=center;fillColor=#dae8fc;strokeColor=#6c8ebf;fontColor=#000000;" parent="1" vertex="1">
                    <mxGeometry x="440" y="150" width="230" height="150" as="geometry"/>
                </mxCell>
                <mxCell id="3" value="npm run &lt;b&gt;&lt;i&gt;start&lt;/i&gt;&lt;/b&gt;" style="rounded=0;whiteSpace=wrap;html=1;strokeWidth=2;fontSize=24;align=center;fontColor=#ffffff;fillColor=#60a917;strokeColor=#2D7600;" parent="1" vertex="1">
                    <mxGeometry x="460" y="210" width="190" height="60" as="geometry"/>
                </mxCell>
                <mxCell id="4" value="Docker Container&lt;br&gt;&lt;br&gt;&lt;br&gt;&lt;br&gt;" style="rounded=0;whiteSpace=wrap;html=1;strokeWidth=2;fontSize=24;align=center;fillColor=#d5e8d4;strokeColor=#82b366;fontColor=#000000;" parent="1" vertex="1">
                    <mxGeometry x="720" y="150" width="230" height="150" as="geometry"/>
                </mxCell>
                <mxCell id="5" value="npm run &lt;b&gt;&lt;i&gt;build&lt;/i&gt;&lt;/b&gt;" style="rounded=0;whiteSpace=wrap;html=1;strokeWidth=2;fontSize=24;align=center;fontColor=#ffffff;fillColor=#60a917;strokeColor=#2D7600;" parent="1" vertex="1">
                    <mxGeometry x="740" y="210" width="190" height="60" as="geometry"/>
                </mxCell>
                <mxCell id="6" value="In Development..." style="text;html=1;strokeColor=none;fillColor=none;align=center;verticalAlign=middle;whiteSpace=wrap;rounded=0;fontSize=24;fontStyle=1;fontColor=#000000;" parent="1" vertex="1">
                    <mxGeometry x="432.5" y="120" width="245" height="20" as="geometry"/>
                </mxCell>
                <mxCell id="7" value="In Production..." style="text;html=1;strokeColor=none;fillColor=none;align=center;verticalAlign=middle;whiteSpace=wrap;rounded=0;fontSize=24;fontStyle=1;fontColor=#000000;" parent="1" vertex="1">
                    <mxGeometry x="712.5" y="120" width="245" height="20" as="geometry"/>
                </mxCell>
            </root>
        </mxGraphModel>
    </diagram>
    <diagram id="e9fe42b5-d4aa-b06d-ce55-7c31a6f87371" name="07 - volume">
        <mxGraphModel dx="1044" dy="920" grid="1" gridSize="10" guides="1" tooltips="1" connect="1" arrows="1" fold="1" page="1" pageScale="1" pageWidth="3300" pageHeight="4681" background="#ffffff" math="0" shadow="0">
            <root>
                <mxCell id="0"/>
                <mxCell id="1" parent="0"/>
                <mxCell id="2" value="docker run -p 3000:3000" style="rounded=0;whiteSpace=wrap;html=1;strokeWidth=2;fontSize=24;align=center;fillColor=#dae8fc;strokeColor=#6c8ebf;fontColor=#000;" parent="1" vertex="1">
                    <mxGeometry x="190" y="360" width="300" height="60" as="geometry"/>
                </mxCell>
                <mxCell id="3" value="-v $(pwd):/app" style="rounded=0;whiteSpace=wrap;html=1;strokeWidth=2;fontSize=24;align=center;fillColor=#dae8fc;strokeColor=#6c8ebf;fontColor=#000;" parent="1" vertex="1">
                    <mxGeometry x="740" y="360" width="220" height="60" as="geometry"/>
                </mxCell>
                <mxCell id="4" value="&amp;lt;image_id&amp;gt;" style="rounded=0;whiteSpace=wrap;html=1;strokeWidth=2;fontSize=24;align=center;fillColor=#dae8fc;strokeColor=#6c8ebf;fontColor=#000;" parent="1" vertex="1">
                    <mxGeometry x="960" y="360" width="220" height="60" as="geometry"/>
                </mxCell>
                <mxCell id="5" value="" style="shape=curlyBracket;whiteSpace=wrap;html=1;rounded=1;strokeWidth=2;fontSize=24;align=center;rotation=90;fontColor=#000;strokeColor=#000;" parent="1" vertex="1">
                    <mxGeometry x="835" y="225" width="30" height="220" as="geometry"/>
                </mxCell>
                <mxCell id="6" value="Map the pwd into the '/app' folder of the container" style="text;html=1;strokeColor=none;fillColor=none;align=center;verticalAlign=middle;whiteSpace=wrap;rounded=0;fontSize=14;fontStyle=2;fontColor=#000;" parent="1" vertex="1">
                    <mxGeometry x="792.5" y="280" width="115" height="32" as="geometry"/>
                </mxCell>
                <mxCell id="7" value="-v /app/node_modules" style="rounded=0;whiteSpace=wrap;html=1;strokeWidth=2;fontSize=24;align=center;fillColor=#dae8fc;strokeColor=#6c8ebf;fontColor=#000;" parent="1" vertex="1">
                    <mxGeometry x="490" y="360" width="250" height="60" as="geometry"/>
                </mxCell>
                <mxCell id="8" value="" style="shape=curlyBracket;whiteSpace=wrap;html=1;rounded=1;strokeWidth=2;fontSize=24;align=center;rotation=-90;fontColor=#000;strokeColor=#000;" parent="1" vertex="1">
                    <mxGeometry x="600" y="315" width="30" height="250" as="geometry"/>
                </mxCell>
                <mxCell id="9" value="Put a bookmark on the node_modules folder" style="text;html=1;strokeColor=none;fillColor=none;align=center;verticalAlign=middle;whiteSpace=wrap;rounded=0;fontSize=14;fontStyle=2;fontColor=#000;" parent="1" vertex="1">
                    <mxGeometry x="533.5" y="460" width="163" height="20" as="geometry"/>
                </mxCell>
            </root>
        </mxGraphModel>
    </diagram>
    <diagram id="87ab2292-ca73-2930-d93c-6b26988683e5" name="08 - volume">
        <mxGraphModel dx="887" dy="782" grid="1" gridSize="10" guides="1" tooltips="1" connect="1" arrows="1" fold="1" page="1" pageScale="1" pageWidth="3300" pageHeight="4681" background="#ffffff" math="0" shadow="0">
            <root>
                <mxCell id="0"/>
                <mxCell id="1" parent="0"/>
                <mxCell id="2" value="Docker Container&lt;br&gt;&lt;br&gt;&lt;br&gt;&lt;br&gt;&lt;br&gt;&lt;br&gt;&lt;br&gt;&lt;br&gt;" style="rounded=0;whiteSpace=wrap;html=1;strokeWidth=2;fontSize=24;align=center;fontStyle=1;fillColor=#1ba1e2;strokeColor=#006EAF;fontColor=#ffffff;" parent="1" vertex="1">
                    <mxGeometry x="1170" y="150" width="210" height="260" as="geometry"/>
                </mxCell>
                <mxCell id="3" value="&amp;nbsp; /app" style="rounded=0;whiteSpace=wrap;html=1;strokeWidth=2;fontSize=20;align=left;" parent="1" vertex="1">
                    <mxGeometry x="1180" y="220" width="190" height="40" as="geometry"/>
                </mxCell>
                <mxCell id="7" value="Local Folder&lt;br&gt;&lt;br&gt;&lt;br&gt;&lt;br&gt;&lt;br&gt;&lt;br&gt;&lt;br&gt;&lt;br&gt;" style="rounded=0;whiteSpace=wrap;html=1;strokeWidth=2;fontSize=24;align=center;fontStyle=1;fillColor=#60a917;strokeColor=#2D7600;fontColor=#ffffff;" parent="1" vertex="1">
                    <mxGeometry x="720" y="150" width="210" height="260" as="geometry"/>
                </mxCell>
                <mxCell id="8" value="&amp;nbsp; frontend" style="rounded=0;whiteSpace=wrap;html=1;strokeWidth=2;fontSize=20;align=left;" parent="1" vertex="1">
                    <mxGeometry x="730" y="220" width="190" height="40" as="geometry"/>
                </mxCell>
                <mxCell id="28" style="edgeStyle=orthogonalEdgeStyle;rounded=0;html=1;exitX=0;exitY=0.5;entryX=1;entryY=0.5;jettySize=auto;orthogonalLoop=1;strokeWidth=3;fontSize=20;strokeColor=#000;" parent="1" source="26" edge="1">
                    <mxGeometry relative="1" as="geometry">
                        <mxPoint x="920" y="280" as="targetPoint"/>
                    </mxGeometry>
                </mxCell>
                <mxCell id="26" value="reference" style="rounded=0;whiteSpace=wrap;html=1;strokeWidth=2;fontSize=20;align=left;" parent="1" vertex="1">
                    <mxGeometry x="1200" y="260" width="170" height="40" as="geometry"/>
                </mxCell>
                <mxCell id="29" style="edgeStyle=orthogonalEdgeStyle;rounded=0;html=1;exitX=0;exitY=0.5;entryX=1;entryY=0.5;jettySize=auto;orthogonalLoop=1;strokeWidth=3;fontSize=20;strokeColor=#000;" parent="1" source="27" edge="1">
                    <mxGeometry relative="1" as="geometry">
                        <mxPoint x="920" y="320" as="targetPoint"/>
                    </mxGeometry>
                </mxCell>
                <mxCell id="27" value="reference" style="rounded=0;whiteSpace=wrap;html=1;strokeWidth=2;fontSize=20;align=left;" parent="1" vertex="1">
                    <mxGeometry x="1200" y="300" width="170" height="40" as="geometry"/>
                </mxCell>
                <mxCell id="p4yt7hpyhzny8Kr7FpVY-29" value="reference" style="rounded=0;whiteSpace=wrap;html=1;strokeWidth=2;fontSize=20;align=left;" vertex="1" parent="1">
                    <mxGeometry x="1200" y="340" width="170" height="40" as="geometry"/>
                </mxCell>
                <mxCell id="P4BH1z5tYCoJqVhGNy9Q-29" value="/src" style="rounded=0;whiteSpace=wrap;html=1;strokeWidth=2;fontSize=20;align=left;" vertex="1" parent="1">
                    <mxGeometry x="750" y="260" width="170" height="40" as="geometry"/>
                </mxCell>
                <mxCell id="P4BH1z5tYCoJqVhGNy9Q-30" value="/public" style="rounded=0;whiteSpace=wrap;html=1;strokeWidth=2;fontSize=20;align=left;" vertex="1" parent="1">
                    <mxGeometry x="750" y="300" width="170" height="40" as="geometry"/>
                </mxCell>
                <mxCell id="P4BH1z5tYCoJqVhGNy9Q-31" value="/node_modules" style="rounded=0;whiteSpace=wrap;html=1;strokeWidth=2;fontSize=20;align=left;" vertex="1" parent="1">
                    <mxGeometry x="750" y="340" width="170" height="40" as="geometry"/>
                </mxCell>
                <mxCell id="P4BH1z5tYCoJqVhGNy9Q-33" style="edgeStyle=orthogonalEdgeStyle;rounded=0;html=1;exitX=0;exitY=0.5;entryX=1;entryY=0.5;jettySize=auto;orthogonalLoop=1;strokeWidth=3;fontSize=20;strokeColor=#000;" edge="1" parent="1">
                    <mxGeometry relative="1" as="geometry">
                        <mxPoint x="1200" y="359.5" as="sourcePoint"/>
                        <mxPoint x="920" y="359.5" as="targetPoint"/>
                    </mxGeometry>
                </mxCell>
            </root>
        </mxGraphModel>
    </diagram>
    <diagram id="e3320c00-d64f-be6e-5640-fa9bbb1b3984" name="09 - attach">
        <mxGraphModel dx="1066" dy="782" grid="1" gridSize="10" guides="1" tooltips="1" connect="1" arrows="1" fold="1" page="1" pageScale="1" pageWidth="3300" pageHeight="4681" background="#ffffff" math="0" shadow="0">
            <root>
                <mxCell id="0"/>
                <mxCell id="1" parent="0"/>
                <mxCell id="2" value="Test Container&lt;br&gt;&lt;br&gt;&lt;br&gt;&lt;br&gt;" style="rounded=0;whiteSpace=wrap;html=1;strokeWidth=2;fontSize=24;align=center;fillColor=#1ba1e2;strokeColor=#006EAF;fontColor=#ffffff;" parent="1" vertex="1">
                    <mxGeometry x="310" y="150" width="417" height="170" as="geometry"/>
                </mxCell>
                <mxCell id="3" value="npm" style="rounded=0;whiteSpace=wrap;html=1;strokeWidth=2;fontSize=24;align=center;" parent="1" vertex="1">
                    <mxGeometry x="526" y="230" width="192" height="40" as="geometry"/>
                </mxCell>
                <mxCell id="4" value="stdin" style="rounded=0;whiteSpace=wrap;html=1;strokeWidth=2;fontSize=14;align=center;" parent="1" vertex="1">
                    <mxGeometry x="526" y="270" width="64" height="30" as="geometry"/>
                </mxCell>
                <mxCell id="5" value="stdout" style="rounded=0;whiteSpace=wrap;html=1;strokeWidth=2;fontSize=14;align=center;" parent="1" vertex="1">
                    <mxGeometry x="590" y="270" width="64" height="30" as="geometry"/>
                </mxCell>
                <mxCell id="6" value="stderr" style="rounded=0;whiteSpace=wrap;html=1;strokeWidth=2;fontSize=14;align=center;" parent="1" vertex="1">
                    <mxGeometry x="654" y="270" width="64" height="30" as="geometry"/>
                </mxCell>
                <mxCell id="28" style="edgeStyle=orthogonalEdgeStyle;rounded=0;html=1;exitX=0.5;exitY=0;jettySize=auto;orthogonalLoop=1;strokeWidth=3;fontSize=24;strokeColor=#000;entryX=0.5;entryY=1;entryDx=0;entryDy=0;" parent="1" source="7" target="4" edge="1">
                    <mxGeometry relative="1" as="geometry"/>
                </mxCell>
                <mxCell id="7" value="Our Terminal" style="rounded=0;whiteSpace=wrap;html=1;strokeWidth=2;fontSize=24;align=center;" parent="1" vertex="1">
                    <mxGeometry x="522" y="420" width="438" height="50" as="geometry"/>
                </mxCell>
                <mxCell id="14" value="Web Container&lt;br&gt;&lt;br&gt;&lt;br&gt;&lt;br&gt;" style="rounded=0;whiteSpace=wrap;html=1;strokeWidth=2;fontSize=24;align=center;fillColor=#60a917;strokeColor=#2D7600;fontColor=#ffffff;" parent="1" vertex="1">
                    <mxGeometry x="750" y="150" width="210" height="170" as="geometry"/>
                </mxCell>
                <mxCell id="15" value="npm run start" style="rounded=0;whiteSpace=wrap;html=1;strokeWidth=2;fontSize=24;align=center;" parent="1" vertex="1">
                    <mxGeometry x="759" y="230" width="192" height="40" as="geometry"/>
                </mxCell>
                <mxCell id="16" value="stdin" style="rounded=0;whiteSpace=wrap;html=1;strokeWidth=2;fontSize=14;align=center;" parent="1" vertex="1">
                    <mxGeometry x="759" y="270" width="64" height="30" as="geometry"/>
                </mxCell>
                <mxCell id="17" value="stdout" style="rounded=0;whiteSpace=wrap;html=1;strokeWidth=2;fontSize=14;align=center;" parent="1" vertex="1">
                    <mxGeometry x="823" y="270" width="64" height="30" as="geometry"/>
                </mxCell>
                <mxCell id="18" value="stderr" style="rounded=0;whiteSpace=wrap;html=1;strokeWidth=2;fontSize=14;align=center;" parent="1" vertex="1">
                    <mxGeometry x="887" y="270" width="64" height="30" as="geometry"/>
                </mxCell>
                <mxCell id="23" value="start.js" style="rounded=0;whiteSpace=wrap;html=1;strokeWidth=2;fontSize=24;align=center;" parent="1" vertex="1">
                    <mxGeometry x="320" y="230" width="192" height="40" as="geometry"/>
                </mxCell>
                <mxCell id="24" value="stdin" style="rounded=0;whiteSpace=wrap;html=1;strokeWidth=2;fontSize=14;align=center;" parent="1" vertex="1">
                    <mxGeometry x="320" y="270" width="64" height="30" as="geometry"/>
                </mxCell>
                <mxCell id="25" value="stdout" style="rounded=0;whiteSpace=wrap;html=1;strokeWidth=2;fontSize=14;align=center;" parent="1" vertex="1">
                    <mxGeometry x="384" y="270" width="64" height="30" as="geometry"/>
                </mxCell>
                <mxCell id="26" value="stderr" style="rounded=0;whiteSpace=wrap;html=1;strokeWidth=2;fontSize=14;align=center;" parent="1" vertex="1">
                    <mxGeometry x="448" y="270" width="64" height="30" as="geometry"/>
                </mxCell>
            </root>
        </mxGraphModel>
    </diagram>
    <diagram id="9b8fcd65-f561-5ad4-e20b-37bf2bbee595" name="10 - dev">
        <mxGraphModel dx="1066" dy="782" grid="1" gridSize="10" guides="1" tooltips="1" connect="1" arrows="1" fold="1" page="1" pageScale="1" pageWidth="3300" pageHeight="4681" background="#ffffff" math="0" shadow="0">
            <root>
                <mxCell id="0"/>
                <mxCell id="1" parent="0"/>
                <mxCell id="4" value="" style="strokeWidth=1;shadow=0;dashed=0;align=center;html=1;shape=mxgraph.mockup.containers.browserWindow;rSize=0;fillColor=#ffffff;strokeColor=#666666;mainText=,;recursiveResize=0;fontSize=24;" parent="1" vertex="1">
                    <mxGeometry x="363" y="202" width="320" height="260" as="geometry"/>
                </mxCell>
                <mxCell id="5" value="Page 1" style="strokeWidth=1;shadow=0;dashed=0;align=center;html=1;shape=mxgraph.mockup.containers.anchor;fontSize=17;fontColor=#666666;align=left;" parent="4" vertex="1">
                    <mxGeometry x="60" y="12" width="110" height="26" as="geometry"/>
                </mxCell>
                <mxCell id="6" value="https://www.draw.io" style="strokeWidth=1;shadow=0;dashed=0;align=center;html=1;shape=mxgraph.mockup.containers.anchor;rSize=0;fontSize=17;fontColor=#666666;align=left;" parent="4" vertex="1">
                    <mxGeometry x="130" y="60" width="250" height="26" as="geometry"/>
                </mxCell>
                <mxCell id="7" value="Web Container&lt;br&gt;&lt;br&gt;&lt;br&gt;&lt;br&gt;" style="rounded=0;whiteSpace=wrap;html=1;strokeWidth=2;fontSize=24;align=center;fillColor=#d5e8d4;strokeColor=#82b366;fontColor=#000;" parent="1" vertex="1">
                    <mxGeometry x="780" y="270" width="340" height="160" as="geometry"/>
                </mxCell>
                <mxCell id="8" value="Dev Server" style="rounded=0;whiteSpace=wrap;html=1;strokeWidth=2;fontSize=24;align=center;" parent="1" vertex="1">
                    <mxGeometry x="789" y="337" width="192" height="80" as="geometry"/>
                </mxCell>
                <mxCell id="13" value="Dev Environment" style="text;html=1;strokeColor=none;fillColor=none;align=center;verticalAlign=middle;whiteSpace=wrap;rounded=0;fontSize=24;fontStyle=3;fontColor=#000;" parent="1" vertex="1">
                    <mxGeometry x="830" y="207" width="225" height="20" as="geometry"/>
                </mxCell>
                <mxCell id="16" value="index.html" style="rounded=0;whiteSpace=wrap;html=1;strokeWidth=2;fontSize=18;align=center;fontStyle=2;fillColor=#f5f5f5;strokeColor=#666666;fontColor=#000;" parent="1" vertex="1">
                    <mxGeometry x="981" y="337" width="130" height="40" as="geometry"/>
                </mxCell>
                <mxCell id="17" style="edgeStyle=orthogonalEdgeStyle;rounded=0;html=1;exitX=1.013;exitY=0.6;entryX=0;entryY=0.25;jettySize=auto;orthogonalLoop=1;strokeWidth=3;fontSize=24;exitPerimeter=0;strokeColor=#000;" parent="1" edge="1">
                    <mxGeometry relative="1" as="geometry">
                        <mxPoint x="683.5" y="360" as="sourcePoint"/>
                        <mxPoint x="788.8333333333333" y="360" as="targetPoint"/>
                    </mxGeometry>
                </mxCell>
                <mxCell id="18" style="edgeStyle=orthogonalEdgeStyle;rounded=0;html=1;exitX=1.013;exitY=0.6;entryX=0;entryY=0.25;jettySize=auto;orthogonalLoop=1;strokeWidth=3;fontSize=24;exitPerimeter=0;strokeColor=#000;" parent="1" edge="1">
                    <mxGeometry relative="1" as="geometry">
                        <mxPoint x="788.8333333333333" y="400" as="sourcePoint"/>
                        <mxPoint x="683.5" y="400" as="targetPoint"/>
                    </mxGeometry>
                </mxCell>
                <mxCell id="19" value="main.js" style="rounded=0;whiteSpace=wrap;html=1;strokeWidth=2;fontSize=18;align=center;fontStyle=2;fillColor=#f5f5f5;strokeColor=#666666;fontColor=#000;" parent="1" vertex="1">
                    <mxGeometry x="981" y="377" width="130" height="40" as="geometry"/>
                </mxCell>
            </root>
        </mxGraphModel>
    </diagram>
    <diagram name="11 - prod" id="e823dc5d-f013-c5e4-c0b5-8891d435313a">
        <mxGraphModel dx="1066" dy="782" grid="1" gridSize="10" guides="1" tooltips="1" connect="1" arrows="1" fold="1" page="1" pageScale="1" pageWidth="3300" pageHeight="4681" background="#ffffff" math="0" shadow="0">
            <root>
                <mxCell id="0"/>
                <mxCell id="1" parent="0"/>
                <mxCell id="9" value="" style="strokeWidth=1;shadow=0;dashed=0;align=center;html=1;shape=mxgraph.mockup.containers.browserWindow;rSize=0;fillColor=#ffffff;strokeColor=#666666;mainText=,;recursiveResize=0;fontSize=24;" parent="1" vertex="1">
                    <mxGeometry x="363" y="202" width="320" height="260" as="geometry"/>
                </mxCell>
                <mxCell id="10" value="Page 1" style="strokeWidth=1;shadow=0;dashed=0;align=center;html=1;shape=mxgraph.mockup.containers.anchor;fontSize=17;fontColor=#666666;align=left;" parent="9" vertex="1">
                    <mxGeometry x="60" y="12" width="110" height="26" as="geometry"/>
                </mxCell>
                <mxCell id="11" value="https://www.draw.io" style="strokeWidth=1;shadow=0;dashed=0;align=center;html=1;shape=mxgraph.mockup.containers.anchor;rSize=0;fontSize=17;fontColor=#666666;align=left;" parent="9" vertex="1">
                    <mxGeometry x="130" y="60" width="250" height="26" as="geometry"/>
                </mxCell>
                <mxCell id="12" value="Web Container&lt;br&gt;&lt;br&gt;&lt;br&gt;&lt;br&gt;" style="rounded=0;whiteSpace=wrap;html=1;strokeWidth=2;fontSize=24;align=center;fillColor=#d5e8d4;strokeColor=#82b366;fontColor=#000;" parent="1" vertex="1">
                    <mxGeometry x="780" y="270" width="340" height="160" as="geometry"/>
                </mxCell>
                <mxCell id="13" value="Production Server" style="rounded=0;whiteSpace=wrap;html=1;strokeWidth=2;fontSize=24;align=center;" parent="1" vertex="1">
                    <mxGeometry x="789" y="337" width="192" height="80" as="geometry"/>
                </mxCell>
                <mxCell id="14" value="Prod Environment" style="text;html=1;strokeColor=none;fillColor=none;align=center;verticalAlign=middle;whiteSpace=wrap;rounded=0;fontSize=24;fontStyle=3;fontColor=#000;" parent="1" vertex="1">
                    <mxGeometry x="830" y="207" width="225" height="20" as="geometry"/>
                </mxCell>
                <mxCell id="15" value="index.html" style="rounded=0;whiteSpace=wrap;html=1;strokeWidth=2;fontSize=18;align=center;fontStyle=2;fillColor=#f5f5f5;strokeColor=#666666;fontColor=#000;" parent="1" vertex="1">
                    <mxGeometry x="981" y="337" width="130" height="40" as="geometry"/>
                </mxCell>
                <mxCell id="16" style="edgeStyle=orthogonalEdgeStyle;rounded=0;html=1;exitX=1.013;exitY=0.6;entryX=0;entryY=0.25;jettySize=auto;orthogonalLoop=1;strokeWidth=3;fontSize=24;exitPerimeter=0;fontColor=#000;strokeColor=#000;" parent="1" edge="1">
                    <mxGeometry relative="1" as="geometry">
                        <mxPoint x="683.5" y="360" as="sourcePoint"/>
                        <mxPoint x="788.8333333333333" y="360" as="targetPoint"/>
                    </mxGeometry>
                </mxCell>
                <mxCell id="17" style="edgeStyle=orthogonalEdgeStyle;rounded=0;html=1;exitX=1.013;exitY=0.6;entryX=0;entryY=0.25;jettySize=auto;orthogonalLoop=1;strokeWidth=3;fontSize=24;exitPerimeter=0;fontColor=#000;strokeColor=#000;" parent="1" edge="1">
                    <mxGeometry relative="1" as="geometry">
                        <mxPoint x="788.8333333333333" y="400" as="sourcePoint"/>
                        <mxPoint x="683.5" y="400" as="targetPoint"/>
                    </mxGeometry>
                </mxCell>
                <mxCell id="18" value="main.js" style="rounded=0;whiteSpace=wrap;html=1;strokeWidth=2;fontSize=18;align=center;fontStyle=2;fillColor=#f5f5f5;strokeColor=#666666;fontColor=#000;" parent="1" vertex="1">
                    <mxGeometry x="981" y="377" width="130" height="40" as="geometry"/>
                </mxCell>
            </root>
        </mxGraphModel>
    </diagram>
    <diagram name="12 - nginx" id="cf2aa05d-5ccf-2cc6-ede5-4dd1738398a4">
        <mxGraphModel dx="1066" dy="782" grid="1" gridSize="10" guides="1" tooltips="1" connect="1" arrows="1" fold="1" page="1" pageScale="1" pageWidth="3300" pageHeight="4681" background="#ffffff" math="0" shadow="0">
            <root>
                <mxCell id="0"/>
                <mxCell id="1" parent="0"/>
                <mxCell id="2" value="" style="strokeWidth=1;shadow=0;dashed=0;align=center;html=1;shape=mxgraph.mockup.containers.browserWindow;rSize=0;fillColor=#ffffff;strokeColor=#666666;mainText=,;recursiveResize=0;fontSize=24;" parent="1" vertex="1">
                    <mxGeometry x="363" y="202" width="320" height="260" as="geometry"/>
                </mxCell>
                <mxCell id="3" value="Page 1" style="strokeWidth=1;shadow=0;dashed=0;align=center;html=1;shape=mxgraph.mockup.containers.anchor;fontSize=17;fontColor=#666666;align=left;" parent="2" vertex="1">
                    <mxGeometry x="60" y="12" width="110" height="26" as="geometry"/>
                </mxCell>
                <mxCell id="4" value="https://www.draw.io" style="strokeWidth=1;shadow=0;dashed=0;align=center;html=1;shape=mxgraph.mockup.containers.anchor;rSize=0;fontSize=17;fontColor=#666666;align=left;" parent="2" vertex="1">
                    <mxGeometry x="130" y="60" width="250" height="26" as="geometry"/>
                </mxCell>
                <mxCell id="5" value="Web Container&lt;br&gt;&lt;br&gt;&lt;br&gt;&lt;br&gt;" style="rounded=0;whiteSpace=wrap;html=1;strokeWidth=2;fontSize=24;align=center;fillColor=#d5e8d4;strokeColor=#82b366;fontColor=#000;" parent="1" vertex="1">
                    <mxGeometry x="780" y="270" width="370" height="160" as="geometry"/>
                </mxCell>
                <mxCell id="12" style="edgeStyle=orthogonalEdgeStyle;rounded=0;html=1;exitX=1;exitY=0.25;jettySize=auto;orthogonalLoop=1;strokeWidth=3;fontSize=18;strokeColor=#000;" parent="1" source="6" target="8" edge="1">
                    <mxGeometry relative="1" as="geometry"/>
                </mxCell>
                <mxCell id="6" value="nginx" style="rounded=0;whiteSpace=wrap;html=1;strokeWidth=2;fontSize=24;align=center;" parent="1" vertex="1">
                    <mxGeometry x="789" y="337" width="192" height="80" as="geometry"/>
                </mxCell>
                <mxCell id="7" value="Prod Environment" style="text;html=1;strokeColor=none;fillColor=none;align=center;verticalAlign=middle;whiteSpace=wrap;rounded=0;fontSize=24;fontStyle=3;fontColor=#000;" parent="1" vertex="1">
                    <mxGeometry x="830" y="207" width="225" height="20" as="geometry"/>
                </mxCell>
                <mxCell id="8" value="index.html" style="rounded=0;whiteSpace=wrap;html=1;strokeWidth=2;fontSize=18;align=center;fontStyle=2;fillColor=#f5f5f5;strokeColor=#666666;fontColor=#000;" parent="1" vertex="1">
                    <mxGeometry x="1010" y="337" width="130" height="40" as="geometry"/>
                </mxCell>
                <mxCell id="9" style="edgeStyle=orthogonalEdgeStyle;rounded=0;html=1;exitX=1.013;exitY=0.6;entryX=0;entryY=0.25;jettySize=auto;orthogonalLoop=1;strokeWidth=3;fontSize=24;exitPerimeter=0;strokeColor=#000;" parent="1" edge="1">
                    <mxGeometry relative="1" as="geometry">
                        <mxPoint x="683.5" y="360" as="sourcePoint"/>
                        <mxPoint x="788.8333333333333" y="360" as="targetPoint"/>
                    </mxGeometry>
                </mxCell>
                <mxCell id="10" style="edgeStyle=orthogonalEdgeStyle;rounded=0;html=1;exitX=1.013;exitY=0.6;entryX=0;entryY=0.25;jettySize=auto;orthogonalLoop=1;strokeWidth=3;fontSize=24;exitPerimeter=0;strokeColor=#000;" parent="1" edge="1">
                    <mxGeometry relative="1" as="geometry">
                        <mxPoint x="788.8333333333333" y="400" as="sourcePoint"/>
                        <mxPoint x="683.5" y="400" as="targetPoint"/>
                    </mxGeometry>
                </mxCell>
                <mxCell id="13" style="edgeStyle=orthogonalEdgeStyle;rounded=0;html=1;exitX=0;exitY=0.5;entryX=1;entryY=0.75;jettySize=auto;orthogonalLoop=1;strokeWidth=3;fontSize=18;strokeColor=#000;" parent="1" source="11" target="6" edge="1">
                    <mxGeometry relative="1" as="geometry"/>
                </mxCell>
                <mxCell id="11" value="main.js" style="rounded=0;whiteSpace=wrap;html=1;strokeWidth=2;fontSize=18;align=center;fontStyle=2;fillColor=#f5f5f5;strokeColor=#666666;fontColor=#000;" parent="1" vertex="1">
                    <mxGeometry x="1010" y="377" width="130" height="40" as="geometry"/>
                </mxCell>
            </root>
        </mxGraphModel>
    </diagram>
    <diagram id="2d89c31b-17e8-eac3-32d8-be6cd42a2ae1" name="13 - process">
        <mxGraphModel dx="1066" dy="782" grid="1" gridSize="10" guides="1" tooltips="1" connect="1" arrows="1" fold="1" page="1" pageScale="1" pageWidth="3300" pageHeight="4681" background="#ffffff" math="0" shadow="0">
            <root>
                <mxCell id="0"/>
                <mxCell id="1" parent="0"/>
                <mxCell id="9" style="edgeStyle=orthogonalEdgeStyle;rounded=0;html=1;exitX=0.5;exitY=1;jettySize=auto;orthogonalLoop=1;strokeWidth=3;fontSize=18;strokeColor=#000;" parent="1" source="2" target="4" edge="1">
                    <mxGeometry relative="1" as="geometry"/>
                </mxCell>
                <mxCell id="2" value="Use node:alpine" style="rounded=0;whiteSpace=wrap;html=1;strokeWidth=2;fontSize=18;align=center;strokeColor=#000;" parent="1" vertex="1">
                    <mxGeometry x="750" y="200" width="250" height="40" as="geometry"/>
                </mxCell>
                <mxCell id="10" style="edgeStyle=orthogonalEdgeStyle;rounded=0;html=1;exitX=0.5;exitY=1;jettySize=auto;orthogonalLoop=1;strokeWidth=3;fontSize=18;strokeColor=#000;" parent="1" source="4" target="5" edge="1">
                    <mxGeometry relative="1" as="geometry"/>
                </mxCell>
                <mxCell id="4" value="Copy the package.json file" style="rounded=0;whiteSpace=wrap;html=1;strokeWidth=2;fontSize=18;align=center;strokeColor=#000;" parent="1" vertex="1">
                    <mxGeometry x="750" y="265" width="250" height="40" as="geometry"/>
                </mxCell>
                <mxCell id="11" style="edgeStyle=orthogonalEdgeStyle;rounded=0;html=1;exitX=0.5;exitY=1;jettySize=auto;orthogonalLoop=1;strokeWidth=3;fontSize=18;strokeColor=#000;" parent="1" source="5" target="6" edge="1">
                    <mxGeometry relative="1" as="geometry"/>
                </mxCell>
                <mxCell id="5" value="Install dependencies" style="rounded=0;whiteSpace=wrap;html=1;strokeWidth=2;fontSize=18;align=center;strokeColor=#000;" parent="1" vertex="1">
                    <mxGeometry x="750" y="330" width="250" height="40" as="geometry"/>
                </mxCell>
                <mxCell id="12" style="edgeStyle=orthogonalEdgeStyle;rounded=0;html=1;exitX=0.5;exitY=1;jettySize=auto;orthogonalLoop=1;strokeWidth=3;fontSize=18;strokeColor=#000;" parent="1" source="6" target="7" edge="1">
                    <mxGeometry relative="1" as="geometry"/>
                </mxCell>
                <mxCell id="6" value="Run 'npm run build'" style="rounded=0;whiteSpace=wrap;html=1;strokeWidth=2;fontSize=18;align=center;strokeColor=#000;" parent="1" vertex="1">
                    <mxGeometry x="750" y="395" width="250" height="40" as="geometry"/>
                </mxCell>
                <mxCell id="7" value="Start nginx" style="rounded=0;whiteSpace=wrap;html=1;strokeWidth=2;fontSize=18;align=center;strokeColor=#000;" parent="1" vertex="1">
                    <mxGeometry x="750" y="460" width="250" height="40" as="geometry"/>
                </mxCell>
                <mxCell id="8" value="" style="endArrow=classic;html=1;strokeWidth=3;fontSize=18;strokeColor=#000;" parent="1" edge="1">
                    <mxGeometry width="50" height="50" relative="1" as="geometry">
                        <mxPoint x="730" y="200" as="sourcePoint"/>
                        <mxPoint x="730" y="500" as="targetPoint"/>
                    </mxGeometry>
                </mxCell>
            </root>
        </mxGraphModel>
    </diagram>
    <diagram name="14 - where" id="4ab1a991-c3cb-eb2d-7d9c-856625b8c2c8">
        <mxGraphModel dx="1066" dy="782" grid="1" gridSize="10" guides="1" tooltips="1" connect="1" arrows="1" fold="1" page="1" pageScale="1" pageWidth="3300" pageHeight="4681" background="#ffffff" math="0" shadow="0">
            <root>
                <mxCell id="0"/>
                <mxCell id="1" parent="0"/>
                <mxCell id="2" style="edgeStyle=orthogonalEdgeStyle;rounded=0;html=1;exitX=0.5;exitY=1;jettySize=auto;orthogonalLoop=1;strokeWidth=3;fontSize=18;" parent="1" source="3" target="5" edge="1">
                    <mxGeometry relative="1" as="geometry"/>
                </mxCell>
                <mxCell id="3" value="Use node:alpine" style="rounded=0;whiteSpace=wrap;html=1;strokeWidth=2;fontSize=18;align=center;" parent="1" vertex="1">
                    <mxGeometry x="750" y="200" width="250" height="40" as="geometry"/>
                </mxCell>
                <mxCell id="4" style="edgeStyle=orthogonalEdgeStyle;rounded=0;html=1;exitX=0.5;exitY=1;jettySize=auto;orthogonalLoop=1;strokeWidth=3;fontSize=18;" parent="1" source="5" target="7" edge="1">
                    <mxGeometry relative="1" as="geometry"/>
                </mxCell>
                <mxCell id="5" value="Copy the package.json file" style="rounded=0;whiteSpace=wrap;html=1;strokeWidth=2;fontSize=18;align=center;" parent="1" vertex="1">
                    <mxGeometry x="750" y="265" width="250" height="40" as="geometry"/>
                </mxCell>
                <mxCell id="6" style="edgeStyle=orthogonalEdgeStyle;rounded=0;html=1;exitX=0.5;exitY=1;jettySize=auto;orthogonalLoop=1;strokeWidth=3;fontSize=18;" parent="1" source="7" target="9" edge="1">
                    <mxGeometry relative="1" as="geometry"/>
                </mxCell>
                <mxCell id="7" value="Install dependencies" style="rounded=0;whiteSpace=wrap;html=1;strokeWidth=2;fontSize=18;align=center;" parent="1" vertex="1">
                    <mxGeometry x="750" y="330" width="250" height="40" as="geometry"/>
                </mxCell>
                <mxCell id="8" style="edgeStyle=orthogonalEdgeStyle;rounded=0;html=1;exitX=0.5;exitY=1;jettySize=auto;orthogonalLoop=1;strokeWidth=3;fontSize=18;" parent="1" source="9" target="10" edge="1">
                    <mxGeometry relative="1" as="geometry"/>
                </mxCell>
                <mxCell id="9" value="Run 'npm run build'" style="rounded=0;whiteSpace=wrap;html=1;strokeWidth=2;fontSize=18;align=center;" parent="1" vertex="1">
                    <mxGeometry x="750" y="395" width="250" height="40" as="geometry"/>
                </mxCell>
                <mxCell id="10" value="Start nginx" style="rounded=0;whiteSpace=wrap;html=1;strokeWidth=2;fontSize=18;align=center;" parent="1" vertex="1">
                    <mxGeometry x="750" y="460" width="250" height="40" as="geometry"/>
                </mxCell>
                <mxCell id="11" value="" style="endArrow=classic;html=1;strokeWidth=3;fontSize=18;" parent="1" edge="1">
                    <mxGeometry width="50" height="50" relative="1" as="geometry">
                        <mxPoint x="730" y="200" as="sourcePoint"/>
                        <mxPoint x="730" y="500" as="targetPoint"/>
                    </mxGeometry>
                </mxCell>
                <mxCell id="12" value="Deps only needed to execute 'npm run build'!" style="text;html=1;strokeColor=none;fillColor=none;align=left;verticalAlign=middle;whiteSpace=wrap;rounded=0;fontSize=18;fontColor=#FF3333;" parent="1" vertex="1">
                    <mxGeometry x="1010" y="325" width="210" height="50" as="geometry"/>
                </mxCell>
                <mxCell id="13" value="Errr...what? Where's nginx coming from?" style="text;html=1;strokeColor=none;fillColor=none;align=left;verticalAlign=middle;whiteSpace=wrap;rounded=0;fontSize=18;fontColor=#FF3333;" parent="1" vertex="1">
                    <mxGeometry x="1010" y="455" width="210" height="50" as="geometry"/>
                </mxCell>
            </root>
        </mxGraphModel>
    </diagram>
    <diagram id="8d5dc751-290d-64a9-0105-7978424eb926" name="15 - multi">
        <mxGraphModel dx="1066" dy="782" grid="1" gridSize="10" guides="1" tooltips="1" connect="1" arrows="1" fold="1" page="1" pageScale="1" pageWidth="3300" pageHeight="4681" background="#ffffff" math="0" shadow="0">
            <root>
                <mxCell id="0"/>
                <mxCell id="1" parent="0"/>
                <mxCell id="2" style="edgeStyle=orthogonalEdgeStyle;rounded=0;html=1;exitX=0.5;exitY=1;jettySize=auto;orthogonalLoop=1;strokeWidth=3;fontSize=18;strokeColor=#000;" parent="1" source="3" target="5" edge="1">
                    <mxGeometry relative="1" as="geometry"/>
                </mxCell>
                <mxCell id="3" value="Use node:alpine" style="rounded=0;whiteSpace=wrap;html=1;strokeWidth=2;fontSize=18;align=center;strokeColor=#000;" parent="1" vertex="1">
                    <mxGeometry x="750" y="200" width="250" height="40" as="geometry"/>
                </mxCell>
                <mxCell id="4" style="edgeStyle=orthogonalEdgeStyle;rounded=0;html=1;exitX=0.5;exitY=1;jettySize=auto;orthogonalLoop=1;strokeWidth=3;fontSize=18;strokeColor=#000;" parent="1" source="5" target="7" edge="1">
                    <mxGeometry relative="1" as="geometry"/>
                </mxCell>
                <mxCell id="5" value="Copy the package.json file" style="rounded=0;whiteSpace=wrap;html=1;strokeWidth=2;fontSize=18;align=center;strokeColor=#000;" parent="1" vertex="1">
                    <mxGeometry x="750" y="265" width="250" height="40" as="geometry"/>
                </mxCell>
                <mxCell id="6" style="edgeStyle=orthogonalEdgeStyle;rounded=0;html=1;exitX=0.5;exitY=1;jettySize=auto;orthogonalLoop=1;strokeWidth=3;fontSize=18;strokeColor=#000;" parent="1" source="7" target="9" edge="1">
                    <mxGeometry relative="1" as="geometry"/>
                </mxCell>
                <mxCell id="7" value="Install dependencies" style="rounded=0;whiteSpace=wrap;html=1;strokeWidth=2;fontSize=18;align=center;strokeColor=#000;" parent="1" vertex="1">
                    <mxGeometry x="750" y="330" width="250" height="40" as="geometry"/>
                </mxCell>
                <mxCell id="9" value="Run 'npm run build'" style="rounded=0;whiteSpace=wrap;html=1;strokeWidth=2;fontSize=18;align=center;strokeColor=#000;" parent="1" vertex="1">
                    <mxGeometry x="750" y="395" width="250" height="40" as="geometry"/>
                </mxCell>
                <mxCell id="11" value="" style="endArrow=classic;html=1;strokeWidth=3;fontSize=18;strokeColor=#000;" parent="1" edge="1">
                    <mxGeometry width="50" height="50" relative="1" as="geometry">
                        <mxPoint x="730" y="200" as="sourcePoint"/>
                        <mxPoint x="730" y="440" as="targetPoint"/>
                    </mxGeometry>
                </mxCell>
                <mxCell id="12" style="edgeStyle=orthogonalEdgeStyle;rounded=0;html=1;exitX=0.5;exitY=1;jettySize=auto;orthogonalLoop=1;strokeWidth=3;fontSize=18;strokeColor=#000;" parent="1" source="13" target="15" edge="1">
                    <mxGeometry relative="1" as="geometry"/>
                </mxCell>
                <mxCell id="13" value="Use nginx" style="rounded=0;whiteSpace=wrap;html=1;strokeWidth=2;fontSize=18;align=center;strokeColor=#000;" parent="1" vertex="1">
                    <mxGeometry x="1082.5" y="200" width="250" height="40" as="geometry"/>
                </mxCell>
                <mxCell id="14" style="edgeStyle=orthogonalEdgeStyle;rounded=0;html=1;exitX=0.5;exitY=1;jettySize=auto;orthogonalLoop=1;strokeWidth=3;fontSize=18;strokeColor=#000;" parent="1" source="15" target="17" edge="1">
                    <mxGeometry relative="1" as="geometry"/>
                </mxCell>
                <mxCell id="15" value="Copy over the result of 'npm run build'" style="rounded=0;whiteSpace=wrap;html=1;strokeWidth=2;fontSize=18;align=center;strokeColor=#000;" parent="1" vertex="1">
                    <mxGeometry x="1082.5" y="265" width="250" height="40" as="geometry"/>
                </mxCell>
                <mxCell id="17" value="Start nginx" style="rounded=0;whiteSpace=wrap;html=1;strokeWidth=2;fontSize=18;align=center;strokeColor=#000;" parent="1" vertex="1">
                    <mxGeometry x="1082.5" y="330" width="250" height="40" as="geometry"/>
                </mxCell>
                <mxCell id="21" value="" style="endArrow=classic;html=1;strokeWidth=3;fontSize=18;strokeColor=#000;" parent="1" edge="1">
                    <mxGeometry width="50" height="50" relative="1" as="geometry">
                        <mxPoint x="1062.5" y="200" as="sourcePoint"/>
                        <mxPoint x="1062.5" y="380" as="targetPoint"/>
                    </mxGeometry>
                </mxCell>
                <mxCell id="22" value="Build Phase" style="text;html=1;strokeColor=#000;fillColor=none;align=center;verticalAlign=middle;whiteSpace=wrap;rounded=0;fontSize=18;fontColor=#000000;fontStyle=1" parent="1" vertex="1">
                    <mxGeometry x="817.5" y="170" width="115" height="20" as="geometry"/>
                </mxCell>
                <mxCell id="23" value="Run Phase" style="text;html=1;strokeColor=#000;fillColor=none;align=center;verticalAlign=middle;whiteSpace=wrap;rounded=0;fontSize=18;fontColor=#000000;fontStyle=1" parent="1" vertex="1">
                    <mxGeometry x="1150" y="170" width="115" height="20" as="geometry"/>
                </mxCell>
            </root>
        </mxGraphModel>
    </diagram>
    <diagram id="4109bb60-0287-d28d-0e2a-88b77f049a4a" name="16 - services">
        <mxGraphModel dx="1066" dy="782" grid="1" gridSize="10" guides="1" tooltips="1" connect="1" arrows="1" fold="1" page="1" pageScale="1" pageWidth="3300" pageHeight="4681" background="#ffffff" math="0" shadow="0">
            <root>
                <mxCell id="0"/>
                <mxCell id="1" parent="0"/>
                <mxCell id="2" value="Github" style="rounded=0;whiteSpace=wrap;html=1;strokeWidth=2;fontSize=18;fontColor=#ffffff;align=center;fillColor=#60a917;strokeColor=#2D7600;" parent="1" vertex="1">
                    <mxGeometry x="480" y="240" width="120" height="60" as="geometry"/>
                </mxCell>
                <mxCell id="3" value="AWS" style="rounded=0;whiteSpace=wrap;html=1;strokeWidth=2;fontSize=18;fontColor=#ffffff;align=center;fillColor=#60a917;strokeColor=#2D7600;" parent="1" vertex="1">
                    <mxGeometry x="480" y="360" width="120" height="60" as="geometry"/>
                </mxCell>
                <mxCell id="4" value="Travis CI" style="rounded=0;whiteSpace=wrap;html=1;strokeWidth=2;fontSize=18;fontColor=#ffffff;align=center;fillColor=#60a917;strokeColor=#2D7600;" parent="1" vertex="1">
                    <mxGeometry x="480" y="300" width="120" height="60" as="geometry"/>
                </mxCell>
                <mxCell id="5" value="Free!" style="rounded=0;whiteSpace=wrap;html=1;strokeWidth=2;fontSize=18;fontColor=#000000;align=center;fillColor=#d5e8d4;strokeColor=#82b366;" parent="1" vertex="1">
                    <mxGeometry x="600" y="240" width="230" height="60" as="geometry"/>
                </mxCell>
                <mxCell id="6" value="Free!" style="rounded=0;whiteSpace=wrap;html=1;strokeWidth=2;fontSize=18;fontColor=#000000;align=center;fillColor=#d5e8d4;strokeColor=#82b366;" parent="1" vertex="1">
                    <mxGeometry x="600" y="300" width="230" height="60" as="geometry"/>
                </mxCell>
                <mxCell id="7" value="Free, but credit card required" style="rounded=0;whiteSpace=wrap;html=1;strokeWidth=2;fontSize=18;fontColor=#000000;align=center;fillColor=#fff2cc;strokeColor=#d6b656;" parent="1" vertex="1">
                    <mxGeometry x="600" y="360" width="230" height="60" as="geometry"/>
                </mxCell>
            </root>
        </mxGraphModel>
    </diagram>
</mxfile>